<svg data-v-d3f97b9e="" xmlns="http://www.w3.org/2000/svg" viewBox="0 0 352 90"><!----><!----><!----><g data-v-d3f97b9e="" id="0e094487-0355-4870-948d-fe610869df6f" fill="white" transform="matrix(5.633795955852723,0,0,5.633795955852723,89.64689329313146,6.493046153394651)"><path d="M10.67 3.88L10.67 3.88L9.86 4.48L9.86 4.48Q9.21 3.62 8.28 3.18L8.28 3.18L8.28 3.18Q7.36 2.73 6.25 2.73L6.25 2.73L6.25 2.73Q5.03 2.73 4.00 3.32L4.00 3.32L4.00 3.32Q2.97 3.90 2.40 4.88L2.40 4.88L2.40 4.88Q1.83 5.86 1.83 7.09L1.83 7.09L1.83 7.09Q1.83 8.94 3.10 10.07L3.10 10.07L3.10 10.07Q4.37 11.20 6.30 11.20L6.30 11.20L6.30 11.20Q8.44 11.20 9.86 9.54L9.86 9.54L10.67 10.14L10.67 10.14Q9.91 11.11 8.78 11.63L8.78 11.63L8.78 11.63Q7.64 12.16 6.25 12.16L6.25 12.16L6.25 12.16Q3.58 12.16 2.04 10.39L2.04 10.39L2.04 10.39Q0.76 8.89 0.76 7L0.76 7L0.76 7Q0.76 4.78 2.32 3.25L2.32 3.25L2.32 3.25Q3.88 1.73 6.23 1.73L6.23 1.73L6.23 1.73Q7.65 1.73 8.79 2.29L8.79 2.29L8.79 2.29Q9.94 2.86 10.67 3.88ZM16.08 4.22L16.08 4.22L16.08 4.22Q17.81 4.22 18.95 5.47L18.95 5.47L18.95 5.47Q20.00 6.61 20.00 8.18L20.00 8.18L20.00 8.18Q20.02 12.07 20.00 12.13L20.00 12.13L20.00 12.13Q19.35 12.13 18.98 12.13L18.98 12.13L18.98 12.13Q18.98 12.08 18.98 10.42L18.98 10.42L18.98 10.42Q18.18 11.92 16.08 12.09L16.08 12.09L16.08 12.09Q14.36 12.09 13.27 10.92L13.27 10.92L13.27 10.92Q12.17 9.75 12.17 8.18L12.17 8.18L12.17 8.18Q12.17 6.62 13.21 5.48L13.21 5.48L13.21 5.48Q14.35 4.22 16.08 4.22ZM16.08 5.16L16.08 5.16L16.08 5.16Q14.88 5.16 14.02 6.05L14.02 6.05L14.02 6.05Q13.16 6.94 13.16 8.20L13.16 8.20L13.16 8.20Q13.16 9.01 13.60 9.76L13.60 9.76L13.60 9.76Q14.04 10.51 15.09 11.03L15.09 11.03L15.09 11.03Q17.73 11.62 18.85 8.63L18.85 8.63L18.85 8.63Q18.91 7.68 18.64 6.80L18.64 6.80L18.64 6.80Q18.45 6.41 18.12 6.05L18.12 6.05L18.12 6.05Q17.27 5.16 16.08 5.16ZM21.72 12.09L21.72 1.69L22.70 1.69L22.70 12.09L21.72 12.09ZM25.29 10.63L25.29 10.63L25.29 10.63Q24.68 9.60 24.55 8.61L24.55 8.61L24.55 8.61Q24.55 1.50 24.55 1.51L24.55 1.51L25.51 1.51L25.51 5.69L25.51 5.69Q26.12 4.95 26.87 4.58L26.87 4.58L26.87 4.58Q27.62 4.22 28.52 4.22L28.52 4.22L28.52 4.22Q30.11 4.22 31.23 5.37L31.23 5.37L31.23 5.37Q32.36 6.53 32.36 8.18L32.36 8.18L32.36 8.18Q32.36 9.80 31.23 10.94L31.23 10.94L31.23 10.94Q30.09 12.09 28.49 12.09L28.49 12.09L28.49 12.09Q27.58 12.09 26.77 11.74L26.77 11.74L26.77 11.74Q25.97 11.39 25.29 10.63ZM28.41 11.17L28.41 11.17L28.41 11.17Q29.22 11.17 29.90 10.77L29.90 10.77L29.90 10.77Q30.58 10.37 30.99 9.66L30.99 9.66L30.99 9.66Q31.39 8.95 31.39 8.14L31.39 8.14L31.39 8.14Q31.39 7.35 30.98 6.62L30.98 6.62L30.98 6.62Q30.58 5.89 29.89 5.49L29.89 5.49L29.89 5.49Q29.20 5.09 28.42 5.09L28.42 5.09L28.42 5.09Q27.63 5.09 26.92 5.49L26.92 5.49L26.92 5.49Q26.21 5.89 25.83 6.58L25.83 6.58L25.83 6.58Q25.44 7.27 25.44 8.11L25.44 8.11L25.44 8.11Q25.44 9.42 26.30 10.29L26.30 10.29L26.30 10.29Q27.17 11.17 28.41 11.17ZM37.84 4.22L37.84 4.22L37.84 4.22Q39.57 4.22 40.71 5.47L40.71 5.47L40.71 5.47Q41.74 6.62 41.74 8.18L41.74 8.18L41.74 8.18Q41.74 9.75 40.65 10.92L40.65 10.92L40.65 10.92Q39.55 12.09 37.84 12.09L37.84 12.09L37.84 12.09Q36.11 12.09 35.02 10.92L35.02 10.92L35.02 10.92Q33.93 9.75 33.93 8.18L33.93 8.18L33.93 8.18Q33.93 6.62 34.97 5.48L34.97 5.48L34.97 5.48Q36.11 4.22 37.84 4.22ZM37.84 5.16L37.84 5.16L37.84 5.16Q36.64 5.16 35.78 6.05L35.78 6.05L35.78 6.05Q34.92 6.94 34.92 8.20L34.92 8.20L34.92 8.20Q34.92 9.01 35.31 9.72L35.31 9.72L35.31 9.72Q35.70 10.42 36.37 10.80L36.37 10.80L36.37 10.80Q37.04 11.18 37.84 11.18L37.84 11.18L37.84 11.18Q38.64 11.18 39.31 10.80L39.31 10.80L39.31 10.80Q39.98 10.42 40.37 9.72L40.37 9.72L40.37 9.72Q40.76 9.01 40.76 8.20L40.76 8.20L40.76 8.20Q40.76 6.94 39.89 6.05L39.89 6.05L39.89 6.05Q39.03 5.16 37.84 5.16ZM46.22 11.03L46.22 11.03L46.22 11.03Q45.51 11.41 44.82 11.09L44.82 11.09L44.82 11.09Q43.99 10.45 44.03 9.28L44.03 9.28L44.03 6.10L45.81 6.10L45.81 5.28L44.02 5.28L44.02 1.65L43.05 1.65L43.05 9.44L43.05 9.44Q43.04 10.26 43.43 10.94L43.43 10.94L43.43 10.94Q44.07 12.03 45.18 12.09L45.18 12.09L45.18 12.09Q45.77 12.11 46.52 11.83L46.52 11.83L46.52 11.83Q46.40 11.54 46.22 11.03Z"></path></g><!----><g data-v-d3f97b9e="" id="ed448cad-228c-4c21-9def-988fde56a503" transform="matrix(1.6071428571428572,0,0,1.6071428571428572,-14.428572348185952,-6.428571428571431)" stroke="none" fill="white"><circle cx="38" cy="33" r="2"></circle><circle cx="48" cy="33" r="2"></circle><circle cx="38" cy="43" r="2"></circle><path d="M48 41a2 2 0 0 0-2 2v10a2 2 0 0 0 4 0V43a2 2 0 0 0-2-2z"></path><circle cx="38" cy="23" r="2"></circle><circle cx="38" cy="53" r="2"></circle><path d="M29 48.263a6.493 6.493 0 0 0-.683-2.892 5.192 5.192 0 0 0-7.888-1.733l-.8.643a1 1 0 0 1-1.25 0l-.8-.643a5.192 5.192 0 0 0-7.888 1.733A6.493 6.493 0 0 0 9 48.263a11.689 11.689 0 0 0 1.035 4.823l2.229 4.953a3.388 3.388 0 0 0 4.087 1.79l2.333-.778a1 1 0 0 1 .632 0l2.334.778a3.326 3.326 0 0 0 4.086-1.791l2.229-4.952A11.689 11.689 0 0 0 29 48.263zM28 21H18a2 2 0 0 0 0 4h10a2 2 0 0 0 0-4z"></path><circle cx="28" cy="33" r="2"></circle><path d="M16 15h34V9H16zm30-4h2v2h-2zm-4 0h2v2h-2zm-4 0h2v2h-2z"></path><path d="M53 4H13a2 2 0 0 0-2 2v35.327a7.087 7.087 0 0 1 7.036.224 12.059 12.059 0 0 1 .2-1.673 6.83 6.83 0 0 1-5.562-6.7 1 1 0 0 1 1-1 6.826 6.826 0 0 1 6.111 3.807 12.085 12.085 0 0 1 1.739-2.219l1.414 1.414a10 10 0 0 0-2.518 4.2v.009a10.021 10.021 0 0 0-.384 2.111 7.164 7.164 0 0 1 10.068 2.975A8.509 8.509 0 0 1 31 48.263a13.652 13.652 0 0 1-1.211 5.643l-2.228 4.953A5.337 5.337 0 0 1 26.849 60H53a2 2 0 0 0 2-2V6a2 2 0 0 0-2-2zM28 37a4 4 0 1 1 4-4 4 4 0 0 1-4 4zm0-10H18a4 4 0 0 1 0-8h10a4 4 0 0 1 0 8zm10 30a4 4 0 1 1 4-4 4 4 0 0 1-4 4zm0-10a4 4 0 1 1 4-4 4 4 0 0 1-4 4zm0-10a4 4 0 1 1 4-4 4 4 0 0 1-4 4zm0-10a4 4 0 1 1 4-4 4 4 0 0 1-4 4zm14 26a4 4 0 0 1-8 0V43a4 4 0 0 1 8 0zm-4-16a4 4 0 1 1 4-4 4 4 0 0 1-4 4zm0-10a4 4 0 1 1 4-4 4 4 0 0 1-4 4zm4-11a1 1 0 0 1-1 1H15a1 1 0 0 1-1-1V8a1 1 0 0 1 1-1h36a1 1 0 0 1 1 1z"></path><path d="M18.366 37.865a4.842 4.842 0 0 0-3.554-3.554 4.842 4.842 0 0 0 3.554 3.554z"></path><circle cx="48" cy="23" r="2"></circle></g><!----></svg>