<svg data-v-29081953="" xmlns="http://www.w3.org/2000/svg" viewBox="0 0 300 300"><!----><defs data-v-29081953=""><!----></defs><rect data-v-29081953="" fill="#EEF7EA" x="0" y="0" width="300px" height="300px" class="logo-background-square"></rect><!----><defs data-v-29081953=""><linearGradient data-v-29081953="" gradientTransform="rotate(25)" id="1c299678-8661-4835-b508-5d8a64997f34" x1="0%" y1="0%" x2="100%" y2="0%"><stop data-v-29081953="" offset="0%" stop-color="#2F8632" stop-opacity="1"></stop><stop data-v-29081953="" offset="100%" stop-color="#BEFF7F" stop-opacity="1"></stop></linearGradient></defs><g data-v-29081953="" id="ecffc8af-4885-4343-9f7b-d3de09b602ac" fill="url(#1c299678-8661-4835-b508-5d8a64997f34)" stroke="none" transform="matrix(3.9285714285714284,0,0,3.9285714285714284,24.285733018602656,24.285714285714285)"><circle cx="38" cy="33" r="2"></circle><circle cx="48" cy="33" r="2"></circle><circle cx="38" cy="43" r="2"></circle><path d="M48 41a2 2 0 0 0-2 2v10a2 2 0 0 0 4 0V43a2 2 0 0 0-2-2z"></path><circle cx="38" cy="23" r="2"></circle><circle cx="38" cy="53" r="2"></circle><path d="M29 48.263a6.493 6.493 0 0 0-.683-2.892 5.192 5.192 0 0 0-7.888-1.733l-.8.643a1 1 0 0 1-1.25 0l-.8-.643a5.192 5.192 0 0 0-7.888 1.733A6.493 6.493 0 0 0 9 48.263a11.689 11.689 0 0 0 1.035 4.823l2.229 4.953a3.388 3.388 0 0 0 4.087 1.79l2.333-.778a1 1 0 0 1 .632 0l2.334.778a3.326 3.326 0 0 0 4.086-1.791l2.229-4.952A11.689 11.689 0 0 0 29 48.263zM28 21H18a2 2 0 0 0 0 4h10a2 2 0 0 0 0-4z"></path><circle cx="28" cy="33" r="2"></circle><path d="M16 15h34V9H16zm30-4h2v2h-2zm-4 0h2v2h-2zm-4 0h2v2h-2z"></path><path d="M53 4H13a2 2 0 0 0-2 2v35.327a7.087 7.087 0 0 1 7.036.224 12.059 12.059 0 0 1 .2-1.673 6.83 6.83 0 0 1-5.562-6.7 1 1 0 0 1 1-1 6.826 6.826 0 0 1 6.111 3.807 12.085 12.085 0 0 1 1.739-2.219l1.414 1.414a10 10 0 0 0-2.518 4.2v.009a10.021 10.021 0 0 0-.384 2.111 7.164 7.164 0 0 1 10.068 2.975A8.509 8.509 0 0 1 31 48.263a13.652 13.652 0 0 1-1.211 5.643l-2.228 4.953A5.337 5.337 0 0 1 26.849 60H53a2 2 0 0 0 2-2V6a2 2 0 0 0-2-2zM28 37a4 4 0 1 1 4-4 4 4 0 0 1-4 4zm0-10H18a4 4 0 0 1 0-8h10a4 4 0 0 1 0 8zm10 30a4 4 0 1 1 4-4 4 4 0 0 1-4 4zm0-10a4 4 0 1 1 4-4 4 4 0 0 1-4 4zm0-10a4 4 0 1 1 4-4 4 4 0 0 1-4 4zm0-10a4 4 0 1 1 4-4 4 4 0 0 1-4 4zm14 26a4 4 0 0 1-8 0V43a4 4 0 0 1 8 0zm-4-16a4 4 0 1 1 4-4 4 4 0 0 1-4 4zm0-10a4 4 0 1 1 4-4 4 4 0 0 1-4 4zm4-11a1 1 0 0 1-1 1H15a1 1 0 0 1-1-1V8a1 1 0 0 1 1-1h36a1 1 0 0 1 1 1z"></path><path d="M18.366 37.865a4.842 4.842 0 0 0-3.554-3.554 4.842 4.842 0 0 0 3.554 3.554z"></path><circle cx="48" cy="23" r="2"></circle></g><!----></svg>